<?xml version="1.0" encoding="UTF-8" standalone="no"?>
<!-- Created with Inkscape (http://www.inkscape.org/) -->

<svg
   version="1.1"
   id="svg2"
   width="429"
   height="220"
   viewBox="0 0 429 220"
   sodipodi:docname="hydra.svg"
   inkscape:version="1.2 (1:1.2.1+202207142221+cd75a1ee6d)"
   xml:space="preserve"
   xmlns:inkscape="http://www.inkscape.org/namespaces/inkscape"
   xmlns:sodipodi="http://sodipodi.sourceforge.net/DTD/sodipodi-0.dtd"
   xmlns="http://www.w3.org/2000/svg"
   xmlns:svg="http://www.w3.org/2000/svg"><defs
     id="defs6" /><sodipodi:namedview
     id="namedview4"
     pagecolor="#ffffff"
     bordercolor="#000000"
     borderopacity="0.25"
     inkscape:showpageshadow="2"
     inkscape:pageopacity="0.0"
     inkscape:pagecheckerboard="0"
     inkscape:deskcolor="#d1d1d1"
     showgrid="false"
     inkscape:zoom="1.6491842"
     inkscape:cx="49.115194"
     inkscape:cy="174.93498"
     inkscape:window-width="2510"
     inkscape:window-height="1016"
     inkscape:window-x="50"
     inkscape:window-y="27"
     inkscape:window-maximized="1"
     inkscape:current-layer="g8" /><g
     inkscape:groupmode="layer"
     inkscape:label="Image"
     id="g8"><path
       style="fill:#5528ff;stroke:#000000;stroke-opacity:1;opacity:1;fill-opacity:1"
       d="M 25.718913,206.30739 0,193.61479 v -10.8111 -10.8111 L 26.237554,185.11884 52.475108,198.2451 78.737554,185.125 105,172.00491 v 10.83899 10.83899 L 78.973375,206.34145 C 64.658731,213.30365 52.607241,219 52.192287,219 51.777333,219 39.864315,213.28833 25.718913,206.30739 Z m 14.628964,-45.7272 c -2.833667,-0.68734 -7.72653,-2.50926 -10.873027,-4.04869 l -5.720905,-2.79898 -6.726601,-6.34554 -6.726601,-6.34553 -3.0616663,-5.77073 C 5.5551601,132.09683 3.4105032,126.8435 2.4731724,123.59667 l -1.70423779,-5.90333 -0.0449784,-7.09667 C 0.6653484,101.34957 2.4282253,94.073156 6.7415713,85.758482 l 3.4972507,-6.741519 6.757562,-6.374741 C 33.279386,57.281663 54.819495,53.760814 74.821658,63.190365 l 6.321658,2.980197 6.77797,6.393994 6.777971,6.393994 3.061666,5.770725 c 1.683917,3.173899 3.828577,8.427223 4.765907,11.674055 l 1.70424,5.90333 0.045,7.09667 c 0.0586,9.2471 -1.70427,16.52351 -6.017611,24.83819 l -3.497251,6.74152 -6.757562,6.37474 c -13.220579,12.47162 -30.726631,17.3288 -47.655739,13.22241 z m 146.000003,0 c -2.83367,-0.68734 -7.72653,-2.50926 -10.87303,-4.04869 l -5.7209,-2.79898 -6.72661,-6.34554 -6.7266,-6.34553 -3.06166,-5.77073 c -1.68392,-3.17389 -3.82858,-8.42722 -4.76591,-11.67405 l -1.70424,-5.90333 -0.045,-7.09667 c -0.0586,-9.2471 1.70427,-16.523514 6.01761,-24.838188 l 3.49725,-6.741519 6.75756,-6.374741 c 16.28301,-15.360559 37.82311,-18.881408 57.82528,-9.451857 l 6.32166,2.980197 6.77797,6.393994 6.77797,6.393994 3.06166,5.770725 c 1.68392,3.173899 3.82858,8.427223 4.76591,11.674055 l 1.70424,5.90333 0.045,7.09667 c 0.0586,9.2471 -1.70427,16.52351 -6.01761,24.83819 l -3.49725,6.74152 -6.75756,6.37474 c -13.22058,12.47162 -30.72663,17.3288 -47.65574,13.22241 z m 27.45712,-21.7033 6.61972,-3.37689 3.7771,-5 c 2.07741,-2.75 4.45685,-6.99266 5.28764,-9.42814 L 231,116.64372 v -6.78435 -6.78434 l -2.06099,-5.508496 -2.06099,-5.508491 -4.46867,-4.597925 -4.46867,-4.597925 -5.72034,-2.6803 -5.72034,-2.6803 -8.10082,-7.97e-4 -8.10083,-7.96e-4 -6.86153,3.5 -6.86154,3.5 -3.7771,5 c -2.07741,2.75 -4.45685,6.992662 -5.28764,9.428139 L 166,103.35628 v 6.81113 6.81114 l 1.85907,4.89268 c 3.56013,9.36949 10.23577,15.68166 20.44077,19.32782 l 5.20016,1.85798 6.84264,-0.40162 6.84264,-0.40163 z M 266,132.5 V 103 h 8.10699 8.10699 l -0.64771,-1.6879 c -0.35624,-0.92834 -4.00438,-7.159218 -8.10699,-13.846396 L 266,75.307199 v -8.716002 -8.716003 l 25.25,0.312403 25.25,0.312403 4.6224,2.137328 c 20.96354,9.693213 25.72386,37.188451 9.09267,52.518542 -2.40005,2.21229 -6.35528,4.90331 -8.7894,5.98003 -2.43412,1.07673 -4.42567,2.1704 -4.42567,2.43039 0,0.25998 5.4,9.26712 12,20.01585 6.6,10.74874 12,19.73997 12,19.98051 C 341,161.80319 336.10909,162 330.13132,162 H 319.26264 L 307.04956,142 294.83648,122 H 290.41824 286 v 20 20 H 276 266 Z M 317.71565,98.613215 321,95.02937 V 90 84.97063 L 317.57927,81.235315 314.15854,77.5 302.07927,77.166251 C 295.43567,76.982689 290,77.149876 290,77.537778 c 0,0.387901 3.44824,6.325856 7.66277,13.195455 l 7.66276,12.490177 4.55289,-0.51317 4.55288,-0.51318 z M 368,136 381.00741,110 368,84 354.99259,58 h 10.49745 10.49744 L 383.5,73 c 4.13188,8.25 7.72007,15 7.97374,15 0.25367,0 3.88022,-6.75 8.05901,-15 l 7.59779,-15 h 10.43662 10.43661 L 402,110 375.99623,162 H 365.49441 354.99259 Z M 0,37.15538 V 26.31567 L 24.25,14.522705 C 37.5875,8.0365743 49.498827,2.2745466 50.719616,1.718199 L 52.939231,0.70665804 78.969616,13.542444 105,26.378231 v 10.81459 10.81459 L 78.762446,34.881155 52.524892,21.7549 26.262446,34.874995 0,47.995091 Z"
       id="path293" /></g></svg>
